<?xml version="1.0" standalone="no"?>
<!DOCTYPE svg PUBLIC "-//W3C//DTD SVG 20010904//EN"
 "http://www.w3.org/TR/2001/REC-SVG-20010904/DTD/svg10.dtd">
<svg version="1.0" xmlns="http://www.w3.org/2000/svg"
 width="260.000000pt" height="260.000000pt" viewBox="0 0 260.000000 260.000000"
 preserveAspectRatio="xMidYMid meet">
<metadata>
Created by potrace 1.11, written by Peter Selinger 2001-2013
</metadata>
<g transform="translate(0.000000,260.000000) scale(0.100000,-0.100000)"
fill="#000000" stroke="none">
<path d="M189 2213 c-5 -35 -4 -226 2 -234 4 -7 102 -10 312 -7 202 2 303 0
299 -7 -4 -5 -147 -244 -319 -530 l-313 -520 0 -127 0 -128 480 0 480 0 0 126
0 125 -330 -3 c-182 -2 -330 -1 -330 2 0 3 6 14 14 25 7 11 151 249 320 528
l306 508 0 124 0 125 -460 0 c-253 0 -460 -3 -461 -7z"/>
<path d="M1765 2208 c-2 -7 -68 -249 -145 -538 -78 -289 -170 -632 -206 -764
-35 -131 -64 -240 -64 -242 0 -3 64 -3 142 -2 l143 3 44 193 45 192 225 -2
225 -3 33 -140 c19 -77 39 -164 45 -193 l11 -52 145 0 c133 0 144 1 140 18 -7
24 -136 513 -281 1067 l-124 470 -187 3 c-144 2 -187 0 -191 -10z m199 -255
c5 -46 133 -603 152 -665 5 -17 -7 -18 -165 -18 -94 0 -171 2 -171 4 0 2 33
143 74 314 41 171 77 335 81 366 4 31 11 56 15 56 4 0 10 -25 14 -57z"/>
</g>
</svg>
